{"title":"Papillon-[1973][DvDrip]-Demonuk[NIKONRG]","uid":4388567,"size":733828483,"categoryP":"video","categoryS":"movies","magnet":"?xt=urn:btih:f64d6df9449ab906db12c5b5d915cee0375f174e&amp;dn=Papillon-%5B1973%5D%5BDvDrip%5D-Demonuk%5BNIKONRG%5D&amp;tr=udp%3A%2F%2Ftracker.openbittorrent.com%3A80&amp;tr=udp%3A%2F%2Fopen.demonii.com%3A1337&amp;tr=udp%3A%2F%2Ftracker.coppersurfer.tk%3A6969&amp;tr=udp%3A%2F%2Fexodus.desync.com%3A6969","seeders":1,"leechers":0,"uploader":"demonuk","files":3,"time":1221004816,"description":"Papillon-[1973][DvDrip]-Demonuk[NIKONRG]\n__________________\nMOVIE INFORMATION\n__________________\nTITLE.............:Papillon\nDIRECTOR..........:Franklin J. Schaffner\nYEAR..............: 1973\nRUNTIME...........:2h 24mn\nGENRE.............: Adventure | Biography | Crime | Drama \nFORMAT.............:AVI\nFormat/Info.........:Audio Video Interleave\nFile size..........:700 MiB\nOveral bit rate...678 Kbps\nSOURCE............:PAL DVD\nIMDB..............: http://www.imdb.com/title/tt0070511/\nUSER RATING............: 8.0/10 (21,145 votes)\n__________________\nVIDEO INFORMATION\n__________________\nFormat : MPEG-4 Visual\nFormat profile : Streaming Video@L1\nFormat settings, BVOP : Yes\nFormat settings, QPel : No\nFormat settings, GMC : No warppoints\nFormat settings, Matrix : Custom\nCodec ID : XVID\nCodec ID/Hint : XviD\nDuration: 2h 24mn\nBit rate : 548 Kbps\nWidth : 496 pixels\nHeight : 208 pixels\nDisplay aspect ratio : 2.35\nFrame rate : 25.000 fps\nResolution : 8 bits\nColorimetry : 4:2:0\nScan type : Progressive\nBits/(Pixel*Frame) : 0.213\nStream size: 566 MiB (81%)\n\n__________________\nAUDIO INFORMATION\n__________________\nAudio\nFormat : MPEG Audio\nFormat version : Version 1\nFormat profile : Layer 3\nCodec ID : 55\nCodec ID/Hint : MP3\nDuration : 2h 24mn\nBit rate mode : Variable\nBit rate : 116 Kbps\nMinimum bit rate : 128 Kbps\nChannel(s) : 2 channels\nSampling rate : 48.0 KHz\nResolution: 16 bits\nStream size: 120 MiB (17%)\nWriting library: LAME3.97 \nEncoding settings: ABR\n\n__________________\nMAIN CAST\n__________________\nSteve McQueen ... \tHenri 'Papillon' Charriere\nDustin Hoffman... \tLouis Dega\nVictor Jory\t... \tIndian Chief\nDon Gordon... \tJulot\nAnthony Zerbe... \tToussaint\nRobert Deman... \tMaturette\n__________________\nPLOT OUTLINE\n__________________\nBased on the true story of Henri Charriere, also known as Papillon, which is French for 'butterfly'\n (the character even sports a large tattoo of a butterfly). A petty criminal, Papillon is wrongly\n convicted of murder and sentenced to life in a French penal colony in 'Guiane'\n (French Guiana, South America). Papillon is determined to escape but attempt after attempt \nmeets with difficulty, resulting in eventual recapture. He continues his attempts to escape despite\n incarcerations in solitary confinement as punishment.\n__________________\nInfo hash:F64D6DF9449AB906DB12C5B5D915CEE0375F174E\nTracker announce:\nTracker announce: http://open.tracker.thepiratebay.se:80/announce\nTracker Scrape:\n\n__________________\nContents of download:\n\nPapillon-[1973][DvDrip]-Demonuk[NIKONRG].avi (700 MiB)\nPapillon.info.txt (1.33Kb)\nTorrent downloaded from(47bytes)\n___________________________________________________________________\n\nFor Detailed Information on New Releases and Popular Requests Goto\n &lt;a href=&quot; http://www.nikonxp.com&quot; rel=&quot;nofollow&quot; target=&quot;_NEW&quot;&gt; http://www.nikonxp.com&lt;/a&gt;\n","torrent":{"xt":"urn:btih:f64d6df9449ab906db12c5b5d915cee0375f174e","amp;dn":"Papillon-%5B1973%5D%5BDvDrip%5D-Demonuk%5BNIKONRG%5D","amp;tr":["udp%3A%2F%2Ftracker.openbittorrent.com%3A80","udp%3A%2F%2Fopen.demonii.com%3A1337","udp%3A%2F%2Ftracker.coppersurfer.tk%3A6969","udp%3A%2F%2Fexodus.desync.com%3A6969"],"infoHash":"f64d6df9449ab906db12c5b5d915cee0375f174e","infoHashBuffer":{"type":"Buffer","data":[246,77,109,249,68,154,185,6,219,18,197,181,217,21,206,224,55,95,23,78]},"announce":[],"urlList":[]}}